<svg xmlns="http://www.w3.org/2000/svg" width="100" height="100" enable-background="new 0 0 100 100" viewBox="0 0 100 100"><path fill="#374D65" d="M93.237,72.436c-0.009-0.094-0.027-0.186-0.054-0.274c-0.229-1.711-1.098-3.188-2.348-4.21
	c1.425-1.193,2.333-2.983,2.333-4.982c0-3.067-2.138-5.639-5-6.318V36.164l4.01-1.417c0.598-0.211,0.998-0.776,1-1.41
	c0.002-0.634-0.395-1.201-0.991-1.416L50.167,16.773c-0.327-0.118-0.686-0.119-1.015-0.001L6.825,31.92
	c-0.598,0.214-0.996,0.782-0.994,1.417s0.404,1.2,1.004,1.411l15.308,5.368l2.127,26.14c0.095,5.928,12.741,9.029,25.234,9.029
	c12.487,0,25.128-3.098,25.233-9.021l2.389-26.2l8.043-2.84v19.429c-2.863,0.68-5.001,3.251-5.001,6.318
	c0,1.999,0.908,3.789,2.333,4.982c-1.249,1.021-2.117,2.495-2.348,4.204c-0.026,0.09-0.045,0.184-0.055,0.28l-0.923,9.23
	c-0.043,0.422,0.096,0.842,0.38,1.156c0.284,0.314,0.688,0.494,1.112,0.494h12.001c0.424,0,0.828-0.179,1.112-0.494
	c0.284-0.314,0.423-0.734,0.38-1.156L93.237,72.436z M49.656,19.778l37.56,13.54l-37.56,13.266L11.823,33.318L49.656,19.778z
	 M71.744,66.052c-0.004,0.045-0.006,0.091-0.006,0.136c0,2.486-8.661,6.097-22.234,6.097s-22.235-3.611-22.235-6.097
	c0-0.041-0.002-0.081-0.005-0.122l-2.022-24.864l23.921,8.388c0.16,0.056,0.328,0.084,0.496,0.084c0.169,0,0.338-0.028,0.5-0.085
	l23.856-8.426L71.744,66.052z M83.168,62.97c0-1.93,1.57-3.5,3.501-3.5c1.93,0,3.5,1.57,3.5,3.5s-1.57,3.5-3.5,3.5
	C84.738,66.47,83.168,64.9,83.168,62.97z M82.325,80.316l0.732-7.32c0.024-0.088,0.042-0.18,0.051-0.275
	c0.168-1.853,1.698-3.25,3.561-3.25c1.861,0,3.392,1.397,3.559,3.25c0.009,0.093,0.025,0.184,0.051,0.271l0.733,7.325H82.325z"/></svg>